#N canvas 578 89 784 751 12;
#X obj 129 177 polysynth;
#X obj 114 269 pack f f f;
#X obj 114 290 s \$0-poly;
#X obj 108 231 poly 6 1;
#X obj 63 632 hip~ 3;
#X obj 63 654 clip~ -1 1;
#X obj 55 729 dac~ 1 2;
#X obj 75 462 /~ 2;
#X obj 127 693 *~ 1;
#X obj 63 610 *~ 0.9;
#X obj 75 357 r \$0-poly;
#X obj 75 378 route 1;
#X obj 155 420 mtof;
#X obj 155 462 /~ 2;
#X obj 155 357 r \$0-poly;
#X obj 155 399 unpack f f;
#X obj 155 378 route 2;
#X obj 235 420 mtof;
#X obj 235 462 /~ 2;
#X obj 235 357 r \$0-poly;
#X obj 235 399 unpack f f;
#X obj 315 420 mtof;
#X obj 315 462 /~ 2;
#X obj 315 357 r \$0-poly;
#X obj 315 399 unpack f f;
#X obj 235 378 route 3;
#X obj 315 378 route 4;
#X obj 395 420 mtof;
#X obj 395 462 /~ 2;
#X obj 395 357 r \$0-poly;
#X obj 395 399 unpack f f;
#X obj 475 420 mtof;
#X obj 475 462 /~ 2;
#X obj 475 357 r \$0-poly;
#X obj 475 399 unpack f f;
#X obj 395 378 route 5;
#X obj 475 378 route 6;
#X text 495 554 Email: mianmogra94@gmail.com;
#X text 495 569 GitHub: github.com/MikeMorenoAudio;
#X text 495 594 Facebook: fb.com/MikeMorenoAudio;
#X text 495 624 WordPress: mikemorenoaudio.wordpress.com;
#X text 496 639 PatchStorage: patchstorage.com/author/mianmogra;
#X obj 75 420 mtof;
#X obj 75 399 unpack f f;
#X text 495 539 Miguel Moreno 2019;
#X obj 75 483 throw~ \$0-M;
#X obj 155 483 throw~ \$0-M;
#X obj 235 483 throw~ \$0-M;
#X obj 315 483 throw~ \$0-M;
#X obj 395 483 throw~ \$0-M;
#X obj 475 483 throw~ \$0-M;
#X obj 64 557 catch~ \$0-M;
#X text 495 609 Youtube: youtube.com/c/mikemorenoaudio;
#X obj 75 441 marimba~;
#X obj 155 441 marimba~;
#X obj 235 441 marimba~;
#X obj 315 441 marimba~;
#X obj 395 441 marimba~;
#X obj 475 441 marimba~;
#X text 495 519 [marimba~] version 1;
#X obj 71 81 notein;
#X connect 1 0 2 0;
#X connect 3 0 1 0;
#X connect 3 1 1 1;
#X connect 3 2 1 2;
#X connect 4 0 5 0;
#X connect 5 0 8 0;
#X connect 7 0 45 0;
#X connect 8 0 6 0;
#X connect 8 0 6 1;
#X connect 9 0 4 0;
#X connect 10 0 11 0;
#X connect 11 0 43 0;
#X connect 12 0 54 0;
#X connect 13 0 46 0;
#X connect 14 0 16 0;
#X connect 15 0 12 0;
#X connect 15 1 54 1;
#X connect 16 0 15 0;
#X connect 17 0 55 0;
#X connect 18 0 47 0;
#X connect 19 0 25 0;
#X connect 20 0 17 0;
#X connect 20 1 55 1;
#X connect 21 0 56 0;
#X connect 22 0 48 0;
#X connect 23 0 26 0;
#X connect 24 0 21 0;
#X connect 24 1 56 1;
#X connect 25 0 20 0;
#X connect 26 0 24 0;
#X connect 27 0 57 0;
#X connect 28 0 49 0;
#X connect 29 0 35 0;
#X connect 30 0 27 0;
#X connect 30 1 57 1;
#X connect 31 0 58 0;
#X connect 32 0 50 0;
#X connect 33 0 36 0;
#X connect 34 0 31 0;
#X connect 34 1 58 1;
#X connect 35 0 30 0;
#X connect 36 0 34 0;
#X connect 42 0 53 0;
#X connect 43 0 42 0;
#X connect 43 1 53 1;
#X connect 51 0 9 0;
#X connect 53 0 7 0;
#X connect 54 0 13 0;
#X connect 55 0 18 0;
#X connect 56 0 22 0;
#X connect 57 0 28 0;
#X connect 58 0 32 0;
#X connect 60 0 3 0;
#X connect 60 1 3 1;
