#N canvas 132 9 850 549 12;
#X text 8 2 This is the master patch of 120Proof;
#X obj 19 235 catch~ \$0-DAC;
#X obj 7 274 dac~;
#X obj 33 142 throw~ \$0-DAC;
#X obj 211 94 LPX/Main;
#X msg 206 50 reset;
#X obj 34 108 *~;
#X msg 102 107 1;
#X msg 146 109 0;
#X obj 53 36 notein 17;
#X msg 279 48 random;
#X obj 33 72 polysynth cello;
#X obj 872 90 pack f f f;
#X obj 871 426 clip~ -1 1;
#X obj 871 447 hip~ 3;
#X obj 872 346 *~ 1;
#X obj 872 70 poly 6 1;
#X obj 870 37 notein 17;
#X msg 1029 315 1;
#X msg 1073 317 0;
#X obj 871 492 throw~ \$0-DAC;
#X obj 872 115 route 1 2 3 4 5 6;
#X obj 870 181 harp~;
#X obj 854 157 unpack f f;
#X obj 949 182 harp~;
#X obj 933 158 unpack f f;
#X obj 1033 181 harp~;
#X obj 1017 157 unpack f f;
#X obj 1112 182 harp~;
#X obj 1096 158 unpack f f;
#X obj 711 179 harp~;
#X obj 695 155 unpack f f;
#X obj 790 180 harp~;
#X obj 774 156 unpack f f;
#X obj 161 235 LPX/Pentatonic;
#X obj 872 391 *~ 1;
#X obj 984 355 vsl 15 32 0.01 1 1 0 empty empty empty 0 -9 0 10 #fcfcfc
#000000 #000000 0 1;
#X obj 164 360 throw~ \$0-DAC;
#X obj 165 326 *~;
#X msg 233 325 1;
#X msg 277 327 0;
#X obj 164 290 polysynth cello;
#X floatatom 455 73 3 0 0 0 - - - 0;
#X floatatom 425 72 3 0 0 0 - - - 0;
#X obj 425 46 ctlin, f 13;
#X obj 511 77 route 1;
#X obj 425 155 spigot;
#X obj 425 197 == 19;
#X obj 510 104 tgl 15 0 empty empty empty 17 7 0 10 #fcfcfc #000000
#000000 0 1;
#X obj 425 222 route 1;
#X obj 425 247 bng 15 250 50 0 empty empty empty 17 7 0 10 #fcfcfc
#000000 #000000;
#X text 444 244 This bangs if lower right button on LPX pressed;
#X obj 358 267 route 1;
#X obj 358 292 bng 15 250 50 0 empty empty empty 17 7 0 10 #fcfcfc
#000000 #000000;
#X obj 358 242 == 29;
#X text 377 289 This bangs if button 29 is pressed;
#X obj 162 201 bng 15 250 50 0 empty empty empty 17 7 0 10 #fcfcfc
#000000 #000000;
#X connect 1 0 2 0;
#X connect 1 0 2 1;
#X connect 5 0 4 0;
#X connect 6 0 3 0;
#X connect 7 0 6 1;
#X connect 8 0 6 1;
#X connect 9 0 11 0;
#X connect 9 1 11 1;
#X connect 10 0 4 0;
#X connect 11 0 6 0;
#X connect 12 0 21 0;
#X connect 13 0 14 0;
#X connect 14 0 20 0;
#X connect 15 0 35 0;
#X connect 16 0 12 0;
#X connect 16 1 12 1;
#X connect 16 2 12 2;
#X connect 17 0 16 0;
#X connect 17 1 16 1;
#X connect 18 0 15 1;
#X connect 19 0 15 1;
#X connect 21 0 31 0;
#X connect 21 1 33 0;
#X connect 21 2 23 0;
#X connect 21 3 25 0;
#X connect 21 4 27 0;
#X connect 21 5 29 0;
#X connect 22 0 15 0;
#X connect 23 0 22 0;
#X connect 23 1 22 1;
#X connect 24 0 15 0;
#X connect 25 0 24 0;
#X connect 25 1 24 1;
#X connect 26 0 15 0;
#X connect 27 0 26 0;
#X connect 27 1 26 1;
#X connect 28 0 15 0;
#X connect 29 0 28 0;
#X connect 29 1 28 1;
#X connect 30 0 15 0;
#X connect 31 0 30 0;
#X connect 31 1 30 1;
#X connect 32 0 15 0;
#X connect 33 0 32 0;
#X connect 33 1 32 1;
#X connect 34 0 41 0;
#X connect 34 1 41 1;
#X connect 35 0 13 0;
#X connect 36 0 35 1;
#X connect 38 0 37 0;
#X connect 39 0 38 1;
#X connect 40 0 38 1;
#X connect 41 0 38 0;
#X connect 42 0 46 0;
#X connect 44 0 43 0;
#X connect 44 1 42 0;
#X connect 44 2 45 0;
#X connect 45 0 48 0;
#X connect 46 0 47 0;
#X connect 46 0 54 0;
#X connect 47 0 49 0;
#X connect 48 0 46 1;
#X connect 49 0 50 0;
#X connect 52 0 53 0;
#X connect 54 0 52 0;
#X connect 56 0 34 0;
