#N canvas 132 9 850 549 12;
#X text 8 2 This is the master patch of 120Proof;
#X obj 19 235 catch~ \$0-DAC;
#X obj 7 274 dac~;
#X obj 33 142 throw~ \$0-DAC;
#X obj 211 94 LPX/Main;
#X msg 206 50 reset;
#X obj 34 108 *~;
#X msg 102 107 1;
#X msg 146 109 0;
#X obj 53 36 notein 17;
#X msg 279 48 random;
#X obj 33 72 polysynth cello;
#X obj 499 95 pack f f f;
#X obj 498 431 clip~ -1 1;
#X obj 498 452 hip~ 3;
#X obj 499 351 *~ 1;
#X obj 499 75 poly 6 1;
#X obj 497 42 notein 17;
#X msg 656 320 1;
#X msg 700 322 0;
#X obj 498 497 throw~ \$0-DAC;
#X obj 499 120 route 1 2 3 4 5 6;
#X obj 497 186 harp~;
#X obj 481 162 unpack f f;
#X obj 576 187 harp~;
#X obj 560 163 unpack f f;
#X obj 660 186 harp~;
#X obj 644 162 unpack f f;
#X obj 739 187 harp~;
#X obj 723 163 unpack f f;
#X obj 338 184 harp~;
#X obj 322 160 unpack f f;
#X obj 417 185 harp~;
#X obj 401 161 unpack f f;
#X obj 161 235 LPX/Pentatonic;
#X obj 499 396 *~ 1;
#X obj 611 360 vsl 15 32 0.01 1 1 0 empty empty empty 0 -9 0 10 #fcfcfc
#000000 #000000 0 1;
#X obj 164 360 throw~ \$0-DAC;
#X obj 165 326 *~;
#X msg 233 325 1;
#X msg 277 327 0;
#X obj 164 290 polysynth cello;
#X connect 1 0 2 0;
#X connect 1 0 2 1;
#X connect 5 0 4 0;
#X connect 6 0 3 0;
#X connect 7 0 6 1;
#X connect 8 0 6 1;
#X connect 9 0 11 0;
#X connect 9 1 11 1;
#X connect 10 0 4 0;
#X connect 11 0 6 0;
#X connect 12 0 21 0;
#X connect 13 0 14 0;
#X connect 14 0 20 0;
#X connect 15 0 35 0;
#X connect 16 0 12 0;
#X connect 16 1 12 1;
#X connect 16 2 12 2;
#X connect 17 0 16 0;
#X connect 17 1 16 1;
#X connect 18 0 15 1;
#X connect 19 0 15 1;
#X connect 21 0 31 0;
#X connect 21 1 33 0;
#X connect 21 2 23 0;
#X connect 21 3 25 0;
#X connect 21 4 27 0;
#X connect 21 5 29 0;
#X connect 22 0 15 0;
#X connect 23 0 22 0;
#X connect 23 1 22 1;
#X connect 24 0 15 0;
#X connect 25 0 24 0;
#X connect 25 1 24 1;
#X connect 26 0 15 0;
#X connect 27 0 26 0;
#X connect 27 1 26 1;
#X connect 28 0 15 0;
#X connect 29 0 28 0;
#X connect 29 1 28 1;
#X connect 30 0 15 0;
#X connect 31 0 30 0;
#X connect 31 1 30 1;
#X connect 32 0 15 0;
#X connect 33 0 32 0;
#X connect 33 1 32 1;
#X connect 34 0 41 0;
#X connect 34 1 41 1;
#X connect 35 0 13 0;
#X connect 36 0 35 1;
#X connect 38 0 37 0;
#X connect 39 0 38 1;
#X connect 40 0 38 1;
#X connect 41 0 38 0;
