#N canvas 357 201 450 300 12;
#X text 8 2 This is the master patch of 120Proof;
#X obj 19 235 catch~ \$0-DAC;
#X obj 7 274 dac~;
#X obj 33 98 throw~ \$0-DAC;
#X obj 53 36 notein;
#X obj 33 72 polysynth cello;
#X obj 189 39 LPX/Main;
#X connect 1 0 2 0;
#X connect 1 0 2 1;
#X connect 4 0 5 0;
#X connect 4 1 5 1;
#X connect 5 0 3 0;
