#N canvas 357 201 450 300 12;
#X text 8 2 This is the master patch of 120Proof;
#X obj 19 235 catch~ \$0-DAC;
#X obj 7 274 dac~;
#X obj 33 142 throw~ \$0-DAC;
#X obj 211 94 LPX/Main;
#X msg 206 50 reset;
#X obj 34 108 *~;
#X msg 102 107 1;
#X msg 146 109 0;
#X obj 53 36 notein 17;
#X msg 279 48 random;
#X obj 33 72 polysynth cello;
#X obj 259 197 harp~;
#X obj 258 280 throw~ \$0-DAC;
#X obj 241 136 notein 17;
#X obj 255 223 *~;
#X msg 323 222 1;
#X msg 367 224 0;
#X connect 1 0 2 0;
#X connect 1 0 2 1;
#X connect 5 0 4 0;
#X connect 6 0 3 0;
#X connect 7 0 6 1;
#X connect 8 0 6 1;
#X connect 9 0 11 0;
#X connect 9 1 11 1;
#X connect 10 0 4 0;
#X connect 11 0 6 0;
#X connect 12 0 15 0;
#X connect 14 0 12 0;
#X connect 14 1 12 1;
#X connect 15 0 13 0;
#X connect 16 0 15 1;
#X connect 17 0 15 1;
