#N canvas 224 43 581 501 12;
#X obj 181 61 pack f f f;
#X obj 180 397 clip~ -1 1;
#X obj 180 418 hip~ 3;
#X obj 181 317 *~ 1;
#X obj 181 41 poly 6 1;
#X obj 179 8 notein 17;
#X msg 338 286 1;
#X msg 382 288 0;
#X obj 181 86 route 1 2 3 4 5 6;
#X obj 179 152 harp~;
#X obj 163 128 unpack f f;
#X obj 258 153 harp~;
#X obj 242 129 unpack f f;
#X obj 342 152 harp~;
#X obj 326 128 unpack f f;
#X obj 421 153 harp~;
#X obj 405 129 unpack f f;
#X obj 20 150 harp~;
#X obj 4 126 unpack f f;
#X obj 99 151 harp~;
#X obj 83 127 unpack f f;
#X obj 181 362 *~ 1;
#X obj 293 326 vsl 15 32 0.01 1 1 0 empty empty empty 0 -9 0 10 #fcfcfc
#000000 #000000 0 1;
#X obj 158 467 dac~;
#X connect 0 0 8 0;
#X connect 1 0 2 0;
#X connect 2 0 23 0;
#X connect 2 0 23 1;
#X connect 3 0 21 0;
#X connect 4 0 0 0;
#X connect 4 1 0 1;
#X connect 4 2 0 2;
#X connect 5 0 4 0;
#X connect 5 1 4 1;
#X connect 6 0 3 1;
#X connect 7 0 3 1;
#X connect 8 0 18 0;
#X connect 8 1 20 0;
#X connect 8 2 10 0;
#X connect 8 3 12 0;
#X connect 8 4 14 0;
#X connect 8 5 16 0;
#X connect 9 0 3 0;
#X connect 10 0 9 0;
#X connect 10 1 9 1;
#X connect 11 0 3 0;
#X connect 12 0 11 0;
#X connect 12 1 11 1;
#X connect 13 0 3 0;
#X connect 14 0 13 0;
#X connect 14 1 13 1;
#X connect 15 0 3 0;
#X connect 16 0 15 0;
#X connect 16 1 15 1;
#X connect 17 0 3 0;
#X connect 18 0 17 0;
#X connect 18 1 17 1;
#X connect 19 0 3 0;
#X connect 20 0 19 0;
#X connect 20 1 19 1;
#X connect 21 0 1 0;
#X connect 22 0 21 1;
