#N canvas 640 93 450 300 12;
#X obj 21 68 pack f f f;
#X obj 25 168 clip~ -1 1;
#X obj 25 189 hip~ 3;
#X obj 26 131 *~ 1;
#X obj 21 98 clone -s 1 cello 6;
#X obj 21 48 poly 6 1;
#X obj 28 228 *~ 1;
#X obj 21 14 notein;
#X obj 23 265 dac~;
#X text 158 98 <-- `-s 1` starting voice. Six Cellos;
#X floatatom 145 34 5 0 0 0 - - - 0;
#X obj 232 169 vsl 15 128 0 5 0 0 empty empty empty 0 -9 0 10 #fcfcfc
#000000 #000000 0 1;
#X floatatom 239 258 5 0 0 0 - - - 0;
#X connect 0 0 4 0;
#X connect 1 0 2 0;
#X connect 2 0 6 0;
#X connect 3 0 1 0;
#X connect 4 0 3 0;
#X connect 5 0 0 0;
#X connect 5 1 0 1;
#X connect 5 2 0 2;
#X connect 6 0 8 0;
#X connect 6 0 8 1;
#X connect 7 0 5 0;
#X connect 7 1 5 1;
#X connect 7 2 10 0;
#X connect 11 0 12 0;
#X connect 12 0 6 1;
