#N canvas 150 125 776 448 12;
#X obj 182 73 pack f f f;
#X obj 181 361 clip~ -1 1;
#X obj 181 382 hip~ 3;
#X obj 182 329 *~ 1;
#X obj 182 53 poly 6 1;
#X obj 180 20 notein 17;
#X msg 339 298 1;
#X obj 181 427 throw~ \$0-DAC;
#X obj 182 98 route 1 2 3 4 5 6;
#X obj 180 164 harp~;
#X obj 164 140 unpack f f;
#X obj 259 165 harp~;
#X obj 243 141 unpack f f;
#X obj 343 164 harp~;
#X obj 327 140 unpack f f;
#X obj 422 165 harp~;
#X obj 406 141 unpack f f;
#X obj 21 162 harp~;
#X obj 5 138 unpack f f;
#X obj 100 163 harp~;
#X obj 84 139 unpack f f;
#X obj 33 331 catch~ \$0-DAC;
#X obj 339 271 loadbang;
#X obj 21 370 dac~ 1 2;
#X connect 0 0 8 0;
#X connect 1 0 2 0;
#X connect 2 0 7 0;
#X connect 3 0 1 0;
#X connect 4 0 0 0;
#X connect 4 1 0 1;
#X connect 4 2 0 2;
#X connect 5 0 4 0;
#X connect 5 1 4 1;
#X connect 6 0 3 1;
#X connect 8 0 18 0;
#X connect 8 1 20 0;
#X connect 8 2 10 0;
#X connect 8 3 12 0;
#X connect 8 4 14 0;
#X connect 8 5 16 0;
#X connect 9 0 3 0;
#X connect 10 0 9 0;
#X connect 10 1 9 1;
#X connect 11 0 3 0;
#X connect 12 0 11 0;
#X connect 12 1 11 1;
#X connect 13 0 3 0;
#X connect 14 0 13 0;
#X connect 14 1 13 1;
#X connect 15 0 3 0;
#X connect 16 0 15 0;
#X connect 16 1 15 1;
#X connect 17 0 3 0;
#X connect 18 0 17 0;
#X connect 18 1 17 1;
#X connect 19 0 3 0;
#X connect 20 0 19 0;
#X connect 20 1 19 1;
#X connect 21 0 23 0;
#X connect 21 0 23 1;
#X connect 22 0 6 0;
