#N canvas 433 37 843 408 12;
#X floatatom 69 48 5 0 0 0 - - - 0;
#X obj 142 0 notein 1;
#X obj 143 35 pack f f;
#X obj 143 60 poly 6 1;
#X obj 143 100 pack f f f;
#X obj 184 222 clip~ -1 1;
#X obj 184 243 hip~ 3;
#X obj 185 190 *~ 1;
#X msg 342 159 1;
#X obj 184 288 throw~ \$0-DAC;
#X obj 36 192 catch~ \$0-DAC;
#X obj 342 132 loadbang;
#X obj 24 231 dac~ 1 2;
#X msg 305 201 0;
#X obj 136 154 clone -s 1 to_harp~ 10;
#X obj 499 33 notein 17;
#X obj 504 86 pack f f;
#X obj 504 111 poly 6 1;
#X obj 504 151 pack f f f;
#X obj 497 205 clone -s 1 cello 10;
#X obj 496 238 throw~ \$0-DAC;
#X connect 1 0 0 0;
#X connect 1 0 2 0;
#X connect 1 1 2 1;
#X connect 2 0 3 0;
#X connect 3 0 4 0;
#X connect 3 1 4 1;
#X connect 3 2 4 2;
#X connect 4 0 14 0;
#X connect 5 0 6 0;
#X connect 6 0 9 0;
#X connect 7 0 5 0;
#X connect 8 0 7 1;
#X connect 10 0 12 0;
#X connect 10 0 12 1;
#X connect 11 0 8 0;
#X connect 13 0 7 1;
#X connect 14 0 7 0;
#X connect 15 0 16 0;
#X connect 15 1 16 1;
#X connect 16 0 17 0;
#X connect 17 0 18 0;
#X connect 17 1 18 1;
#X connect 17 2 18 2;
#X connect 18 0 19 0;
#X connect 19 0 20 0;
