#N canvas 640 93 450 300 12;
#X obj 29 112 pack f f f;
#X obj 29 210 clip~ -1 1;
#X obj 29 231 hip~ 3;
#X obj 30 173 *~ 1;
#X obj 29 92 poly 6 1;
#X text 166 142 <-- `-s 1` starting voice. Six Cellos;
#X obj 29 276 outlet~;
#X obj 33 12 inlet Midi note;
#X obj 138 37 inlet Midi velocity;
#X obj 29 142 clone -s 1 harp~ 6;
#X connect 0 0 9 0;
#X connect 1 0 2 0;
#X connect 2 0 6 0;
#X connect 3 0 1 0;
#X connect 4 0 0 0;
#X connect 4 1 0 1;
#X connect 4 2 0 2;
#X connect 7 0 4 0;
#X connect 8 0 4 1;
#X connect 9 0 3 0;
