#N canvas 379 90 459 349 12;
#X obj 143 10 notein;
#X obj 143 35 pack f f;
#X obj 143 60 poly 6 1;
#X obj 143 100 pack f f f;
#X obj 184 222 clip~ -1 1;
#X obj 184 243 hip~ 3;
#X obj 185 190 *~ 1;
#X msg 342 159 1;
#X obj 184 288 throw~ \$0-DAC;
#X obj 36 192 catch~ \$0-DAC;
#X obj 342 132 loadbang;
#X obj 24 231 dac~ 1 2;
#X msg 305 201 0;
#X obj 136 154 clone -s 1 to_harp~ 10;
#X connect 0 0 1 0;
#X connect 0 1 1 1;
#X connect 1 0 2 0;
#X connect 2 0 3 0;
#X connect 2 1 3 1;
#X connect 2 2 3 2;
#X connect 3 0 13 0;
#X connect 4 0 5 0;
#X connect 5 0 8 0;
#X connect 6 0 4 0;
#X connect 7 0 6 1;
#X connect 9 0 11 0;
#X connect 9 0 11 1;
#X connect 10 0 7 0;
#X connect 12 0 6 1;
#X connect 13 0 6 0;
