#N canvas 284 218 817 411 12;
#X obj 35 7 notein 1;
#X floatatom 35 32 5 0 0 0 - - - 0;
#X floatatom 82 88 5 0 0 0 - - - 0;
#X floatatom 26 88 5 0 0 0 - - - 0;
#X obj 107 42 != 0;
#X floatatom 28 140 5 0 0 0 - - - 0;
#X obj 28 112 expr if($i1 == 1 && $i2 == 1 \, 1 \, 0);
#X text 69 139 1 iff pad is pressed;
#X obj 26 205 route 1;
#X obj 28 243 bng 15 250 50 0 empty empty empty 17 7 0 10 #fcfcfc #000000
#000000;
#X obj 74 244 bng 15 250 50 0 empty empty empty 17 7 0 10 #fcfcfc #000000
#000000;
#X text 94 239 <- Bangs on pad release;
#X obj 376 299 tgl 15 0 \$1 empty \$1 17 7 1 10 #00ff00 #fc0400 #000000
0 1;
#X obj 98 201 spigot;
#X obj 18 164 t a a;
#X obj 432 168 midiout;
#X text 696 55 21 => green;
#X obj 35 56 == \$1;
#X obj 430 28 list 240 0 32 41 2 12 3 0 \$1 72 247;
#X obj 437 54 list 240 0 32 41 2 12 3 0 \$1 21 247;
#X obj 327 3 inlet Colour;
#X obj 74 268 outlet release;
#X obj 34 331 outlet press;
#X msg 396 270 color #00ff00;
#X msg 282 267 color #ff0000;
#X obj 453 113 list 240 0 32 41 2 12 3 0 \$1 67 247;
#X obj 430 1 route red green blue;
#X msg 518 264 color #0000ff;
#X text 712 114 67 => blue;
#X text 697 25 72 => red;
#X connect 0 0 1 0;
#X connect 0 1 4 0;
#X connect 1 0 17 0;
#X connect 2 0 6 1;
#X connect 3 0 6 0;
#X connect 4 0 2 0;
#X connect 5 0 14 0;
#X connect 6 0 5 0;
#X connect 8 0 9 0;
#X connect 8 1 13 0;
#X connect 9 0 22 0;
#X connect 10 0 21 0;
#X connect 13 0 10 0;
#X connect 14 0 13 1;
#X connect 14 1 8 0;
#X connect 17 0 3 0;
#X connect 18 0 15 0;
#X connect 18 0 24 0;
#X connect 19 0 15 0;
#X connect 19 0 23 0;
#X connect 20 0 26 0;
#X connect 23 0 12 0;
#X connect 24 0 12 0;
#X connect 25 0 15 0;
#X connect 25 0 27 0;
#X connect 26 0 18 0;
#X connect 26 1 19 0;
#X connect 26 2 25 0;
#X connect 27 0 12 0;
#X coords 0 -1 1 1 40 20 2 373 297;
