#N canvas 36 26 450 300 12;
#X obj 27 136 midiout;
#X obj 28 110 list 240 0 32 41 2 12 0 127 247;
#X text 45 85 Set programmer mode;
#X text 13 2 Control Novation LP_X touchpad;
#X obj 28 66 loadbang;
#X text 13 26 Include this patch to put the device into Programmer
Mode and make it useful;
#X obj 27 165 inlet;
#N canvas 16 7 744 497 reset 0;
#X obj 418 -36 inlet;
#X obj 185 59 bng 15 250 50 0 empty empty empty 17 7 0 10 #fcfcfc #000000
#000000;
#X obj 185 79 float;
#X obj 252 101 + 1;
#X floatatom 135 109 5 0 0 0 - - - 0;
#X obj 108 375 midiout;
#X obj 311 -12 t b b;
#X msg 311 32 11;
#X obj 312 -37 bng 15 250 50 0 empty empty empty 17 7 0 10 #fcfcfc
#000000 #000000;
#X msg 153 10 stop;
#X obj 82 273 t a a;
#X obj 129 320 list prepend 240 0 32 41 2 12 3 0;
#X obj 140 219 pack f f f;
#X msg 214 166 247;
#X obj 125 133 t a a a;
#X obj 323 216 bng 15 250 50 0 empty empty empty 17 7 0 10 #fcfcfc
#000000 #000000;
#X obj 323 189 route 99;
#X obj 323 236 s \$0-stop;
#X obj 156 -19 r \$0-stop;
#X msg 177 183 25;
#X obj 186 35 metro 5;
#X connect 0 0 6 0;
#X connect 1 0 2 0;
#X connect 2 0 3 0;
#X connect 2 0 4 0;
#X connect 2 0 16 0;
#X connect 3 0 2 1;
#X connect 4 0 14 0;
#X connect 6 0 20 0;
#X connect 6 1 7 0;
#X connect 7 0 2 1;
#X connect 8 0 6 0;
#X connect 9 0 20 0;
#X connect 10 0 11 0;
#X connect 11 0 5 0;
#X connect 12 0 10 0;
#X connect 13 0 12 2;
#X connect 14 0 12 0;
#X connect 14 1 19 0;
#X connect 14 2 13 0;
#X connect 15 0 17 0;
#X connect 16 0 15 0;
#X connect 18 0 9 0;
#X connect 19 0 12 1;
#X connect 20 0 1 0;
#X restore 26 264 pd reset;
#N canvas 643 71 493 494 random 0;
#X obj 193 98 bng 15 250 50 0 empty empty empty 17 7 0 10 #fcfcfc #000000
#000000;
#X obj 193 118 float;
#X obj 260 140 + 1;
#X floatatom 143 148 5 0 0 0 - - - 0;
#X obj 116 414 midiout;
#X obj 319 27 t b b;
#X msg 319 71 11;
#X obj 312 -37 bng 15 250 50 0 empty empty empty 17 7 0 10 #fcfcfc
#000000 #000000;
#X msg 161 49 stop;
#X obj 70 304 t a a;
#X obj 137 359 list prepend 240 0 32 41 2 12 3 0;
#X obj 152 274 pack f f f;
#X msg 226 221 247;
#X obj 133 172 t a a a;
#X obj 156 222 random 63;
#X floatatom 156 247 5 0 0 0 - - - 0;
#X obj 155 199 bng 15 250 50 0 empty empty empty 17 7 0 10 #fcfcfc
#000000 #000000;
#X floatatom 22 258 5 0 0 0 - - - 0;
#X obj 133 197 bng 15 250 50 0 empty empty empty 17 7 0 10 #fcfcfc
#000000 #000000;
#X obj 22 233 random 100;
#X obj 194 74 metro 50;
#X obj 14 -35 inlet Start;
#X obj 151 -33 inlet stop;
#X connect 0 0 1 0;
#X connect 1 0 2 0;
#X connect 1 0 3 0;
#X connect 2 0 1 1;
#X connect 3 0 13 0;
#X connect 5 0 20 0;
#X connect 5 1 6 0;
#X connect 6 0 1 1;
#X connect 7 0 5 0;
#X connect 8 0 20 0;
#X connect 9 0 10 0;
#X connect 10 0 4 0;
#X connect 11 0 9 0;
#X connect 12 0 11 2;
#X connect 13 0 18 0;
#X connect 13 1 16 0;
#X connect 13 2 12 0;
#X connect 14 0 11 1;
#X connect 14 0 15 0;
#X connect 16 0 14 0;
#X connect 18 0 19 0;
#X connect 19 0 11 0;
#X connect 19 0 17 0;
#X connect 20 0 0 0;
#X connect 21 0 5 0;
#X connect 22 0 8 0;
#X restore 92 251 pd random;
#X obj 27 190 route reset random;
#X obj 27 215 t b b;
#X connect 1 0 0 0;
#X connect 4 0 1 0;
#X connect 6 0 9 0;
#X connect 9 0 10 0;
#X connect 9 1 8 0;
#X connect 10 0 7 0;
#X connect 10 1 8 1;
