#N canvas 561 59 450 464 12;
#X obj 41 340 catch~ \$0-DAC;
#X obj 29 379 dac~;
#X obj 87 47 LPX/Main;
#X msg 82 3 reset;
#X msg 155 1 random;
#X obj 37 188 LPX/Pentatonic;
#X obj 40 313 throw~ \$0-DAC;
#X obj 40 243 polysynth cello;
#X floatatom 331 26 3 0 0 0 - - - 0;
#X floatatom 301 25 3 0 0 0 - - - 0;
#X obj 301 -1 ctlin, f 13;
#X obj 387 30 route 1;
#X obj 301 108 spigot;
#X obj 301 150 == 19;
#X obj 386 57 tgl 15 0 empty empty empty 17 7 0 10 #fcfcfc #000000
#000000 0 1;
#X obj 301 175 route 1;
#X obj 301 200 bng 15 250 50 0 empty empty empty 17 7 0 10 #fcfcfc
#000000 #000000;
#X text 320 197 This bangs if lower right button on LPX pressed;
#X obj 234 220 route 1;
#X obj 234 245 bng 15 250 50 0 empty empty empty 17 7 0 10 #fcfcfc
#000000 #000000;
#X obj 234 195 == 29;
#X text 253 242 This bangs if button 29 is pressed;
#X obj 38 154 bng 15 250 50 0 empty empty empty 17 7 0 10 #fcfcfc #000000
#000000;
#X connect 0 0 1 0;
#X connect 0 0 1 1;
#X connect 3 0 2 0;
#X connect 4 0 2 0;
#X connect 5 0 7 0;
#X connect 5 1 7 1;
#X connect 7 0 6 0;
#X connect 8 0 12 0;
#X connect 10 0 9 0;
#X connect 10 1 8 0;
#X connect 10 2 11 0;
#X connect 11 0 14 0;
#X connect 12 0 13 0;
#X connect 12 0 20 0;
#X connect 13 0 15 0;
#X connect 14 0 12 1;
#X connect 15 0 16 0;
#X connect 18 0 19 0;
#X connect 20 0 18 0;
#X connect 22 0 5 0;
