#N canvas 657 121 450 300 12;
#X obj 24 13 loadbang;
#N canvas 0 0 1280 632 setup 1;
#X obj 15 50 inlet;
#X obj 60 11 bng 15 250 50 0 empty empty empty 17 7 0 10 #fcfcfc #000000
#000000;
#X text 92 7 A pentatonic scale Roots are coloured red Each fifth is
blue The rest are left default Center key on pad is 54;
#X text 357 66 71 => red;
#X text 214 46 A \, C \, D \, E \, G == 0 3 5 7 10;
#X text 237 68 Button 54 == A;
#X floatatom 617 28 5 0 0 0 - - - 0;
#X obj 617 3 notein 1, f 14;
#X obj 15 171 bng 15 250 50 0 empty empty empty 17 7 0 10 #fcfcfc #000000
#000000;
#N canvas 126 204 450 300 paint_it_blue 0;
#X obj 75 198 t a a;
#X obj 122 245 list prepend 240 0 32 41 2 12 3 0;
#X obj 139 201 print Q;
#X obj 141 143 pack f f f;
#X msg 215 90 247;
#X obj 115 73 t a a a;
#X obj 125 19 inlet Button number 11-99;
#X obj 122 270 midiout;
#X obj 13 267 print To MIDI;
#X msg 179 105 67;
#X connect 0 0 1 0;
#X connect 0 1 2 0;
#X connect 1 0 7 0;
#X connect 1 0 8 0;
#X connect 3 0 0 0;
#X connect 4 0 3 2;
#X connect 5 0 3 0;
#X connect 5 1 9 0;
#X connect 5 2 4 0;
#X connect 6 0 5 0;
#X connect 9 0 3 1;
#X restore 1106 567 pd paint_it_blue;
#X obj 1106 542 r \$0-paint_it_blue;
#X obj 144 360 s \$0-paint_it_blue;
#X obj 970 541 r \$0-paint_it_red;
#N canvas 126 204 450 300 paint_it_red 0;
#X obj 75 198 t a a;
#X obj 122 245 list prepend 240 0 32 41 2 12 3 0;
#X obj 139 201 print Q;
#X obj 141 143 pack f f f;
#X msg 215 90 247;
#X obj 115 73 t a a a;
#X obj 125 19 inlet Button number 11-99;
#X obj 122 270 midiout;
#X obj 13 267 print To MIDI;
#X msg 179 105 72;
#X connect 0 0 1 0;
#X connect 0 1 2 0;
#X connect 1 0 7 0;
#X connect 1 0 8 0;
#X connect 3 0 0 0;
#X connect 4 0 3 2;
#X connect 5 0 3 0;
#X connect 5 1 9 0;
#X connect 5 2 4 0;
#X connect 6 0 5 0;
#X connect 9 0 3 1;
#X restore 970 566 pd paint_it_red;
#X obj 140 293 s \$0-paint_it_red;
#X obj 10 619 polysynth cello;
#X obj 11 652 throw~ \$0-DAC;
#X obj 11 678 catch~ \$0-DAC;
#X obj 3 707 dac~;
#X obj 120 569 r \$0-velocity;
#X obj 712 29 s \$0-velocity;
#X obj 10 565 r \$0-polysynth;
#X obj 15 191 s \$0-init;
#X obj 365 529 s \$0-paint_it_blue;
#X obj 193 395 r \$0-init;
#X obj 784 246 s \$0-polysynth;
#X obj 262 201 s \$0-paint_it_blue;
#X obj 90 67 r \$0-init;
#X obj 67 237 i 27;
#X obj 67 263 i 32;
#X obj 68 290 i 54;
#X obj 67 316 i 76;
#X obj 68 361 i 13;
#X obj 68 388 i 15;
#X obj 67 413 i 17;
#X obj 66 435 i 22;
#X obj 120 446 i 25;
#X obj 64 481 i 35;
#X obj 64 504 i 37;
#X obj 280 412 i 42;
#X obj 280 443 i 44;
#X obj 280 467 i 47;
#X obj 279 493 i 52;
#X obj 279 523 i 57;
#X obj 280 550 i 62;
#X obj 281 575 i 64;
#X obj 280 600 i 66;
#X obj 176 113 i 71;
#X obj 176 138 i 74;
#X obj 176 165 i 78;
#X obj 179 192 i 83;
#X obj 178 218 i 85;
#X obj 180 243 i 87;
#X obj 502 86 route 13 15 17 22 25 27 32 35 37 42 44 47 52 54 57 62
64 66 71 74 76 78 83 85 87, f 93;
#X obj 466 119 i 36;
#X obj 507 119 i 38;
#X obj 543 121 i 40;
#X obj 592 124 i 43;
#X obj 632 123 i 45;
#X obj 676 120 i 48;
#X obj 715 125 i 50;
#X obj 757 126 i 52;
#X obj 798 127 i 55;
#X obj 843 127 i 57;
#X obj 886 129 i 60;
#X obj 934 126 i 62;
#X obj 970 128 i 64;
#X obj 1009 128 i 67;
#X obj 1052 128 i 69;
#X obj 1098 125 i 71;
#X obj 1138 128 i 73;
#X obj 1186 123 i 75;
#X connect 0 0 8 0;
#X connect 6 0 53 0;
#X connect 7 0 6 0;
#X connect 7 1 20 0;
#X connect 8 0 22 0;
#X connect 8 0 28 0;
#X connect 8 0 29 0;
#X connect 8 0 30 0;
#X connect 8 0 31 0;
#X connect 8 0 32 0;
#X connect 8 0 33 0;
#X connect 8 0 34 0;
#X connect 8 0 35 0;
#X connect 8 0 36 0;
#X connect 8 0 37 0;
#X connect 8 0 38 0;
#X connect 10 0 9 0;
#X connect 12 0 13 0;
#X connect 15 0 16 0;
#X connect 17 0 18 0;
#X connect 17 0 18 1;
#X connect 19 0 15 1;
#X connect 21 0 15 0;
#X connect 24 0 39 0;
#X connect 24 0 40 0;
#X connect 24 0 41 0;
#X connect 24 0 42 0;
#X connect 24 0 43 0;
#X connect 24 0 44 0;
#X connect 24 0 45 0;
#X connect 24 0 46 1;
#X connect 24 0 46 0;
#X connect 27 0 47 0;
#X connect 27 0 48 0;
#X connect 27 0 49 0;
#X connect 27 0 50 0;
#X connect 27 0 51 0;
#X connect 27 0 52 1;
#X connect 27 0 52 0;
#X connect 28 0 14 0;
#X connect 29 0 14 0;
#X connect 30 0 14 0;
#X connect 31 0 14 0;
#X connect 32 0 11 0;
#X connect 33 0 11 0;
#X connect 34 0 11 0;
#X connect 35 0 11 0;
#X connect 36 0 11 0;
#X connect 37 0 11 0;
#X connect 38 0 11 0;
#X connect 39 0 23 0;
#X connect 40 0 23 0;
#X connect 41 0 23 0;
#X connect 42 0 23 0;
#X connect 43 0 23 0;
#X connect 44 0 23 0;
#X connect 45 0 23 0;
#X connect 46 0 23 0;
#X connect 47 0 26 0;
#X connect 48 0 26 0;
#X connect 49 0 26 0;
#X connect 50 0 26 0;
#X connect 51 0 26 0;
#X connect 52 0 26 0;
#X connect 53 0 54 0;
#X connect 53 1 55 0;
#X connect 53 2 56 0;
#X connect 53 3 56 0;
#X connect 53 4 57 0;
#X connect 53 5 58 0;
#X connect 53 6 58 0;
#X connect 53 7 59 0;
#X connect 53 8 60 0;
#X connect 53 9 60 0;
#X connect 53 10 61 0;
#X connect 53 11 62 0;
#X connect 53 12 62 0;
#X connect 53 13 63 0;
#X connect 53 14 64 0;
#X connect 53 15 64 0;
#X connect 53 16 65 0;
#X connect 53 17 66 0;
#X connect 53 18 66 0;
#X connect 53 19 67 0;
#X connect 53 20 68 0;
#X connect 53 21 69 0;
#X connect 53 22 69 0;
#X connect 53 23 70 0;
#X connect 53 24 71 0;
#X connect 54 0 25 0;
#X connect 55 0 25 0;
#X connect 56 0 25 0;
#X connect 57 0 25 0;
#X connect 58 0 25 0;
#X connect 59 0 25 0;
#X connect 60 0 25 0;
#X connect 61 0 25 0;
#X connect 62 0 25 0;
#X connect 63 0 25 0;
#X connect 64 0 25 0;
#X connect 65 0 25 0;
#X connect 66 0 25 0;
#X connect 67 0 25 0;
#X connect 68 0 25 0;
#X connect 69 0 25 0;
#X connect 70 0 25 0;
#X connect 71 0 25 0;
#X restore 24 38 pd setup;
#X connect 0 0 1 0;
