#N canvas 657 121 450 300 12;
#X obj 24 13 loadbang;
#N canvas 26 29 1280 632 setup 1;
#X obj 15 50 inlet;
#X obj 60 11 bng 15 250 50 0 empty empty empty 17 7 0 10 #fcfcfc #000000
#000000;
#X text 92 7 A pentatonic scale Roots are coloured red Each fifth is
blue The rest are left default Center key on pad is 54;
#X text 357 66 71 => red;
#X text 214 46 A \, C \, D \, E \, G == 0 3 5 7 10;
#X text 237 68 Button 54 == A;
#X obj 617 3 notein 1;
#X obj 15 171 bng 15 250 50 0 empty empty empty 17 7 0 10 #fcfcfc #000000
#000000;
#N canvas 126 204 450 300 paint_it_blue 0;
#X obj 75 198 t a a;
#X obj 122 245 list prepend 240 0 32 41 2 12 3 0;
#X obj 139 201 print Q;
#X obj 141 143 pack f f f;
#X msg 215 90 247;
#X obj 115 73 t a a a;
#X obj 125 19 inlet Button number 11-99;
#X obj 122 270 midiout;
#X obj 13 267 print To MIDI;
#X msg 179 105 67;
#X connect 0 0 1 0;
#X connect 0 1 2 0;
#X connect 1 0 7 0;
#X connect 1 0 8 0;
#X connect 3 0 0 0;
#X connect 4 0 3 2;
#X connect 5 0 3 0;
#X connect 5 1 9 0;
#X connect 5 2 4 0;
#X connect 6 0 5 0;
#X connect 9 0 3 1;
#X restore 706 557 pd paint_it_blue;
#X obj 706 532 r \$0-paint_it_blue;
#X obj 144 360 s \$0-paint_it_blue;
#X obj 570 531 r \$0-paint_it_red;
#N canvas 126 204 450 300 paint_it_red 0;
#X obj 75 198 t a a;
#X obj 122 245 list prepend 240 0 32 41 2 12 3 0;
#X obj 139 201 print Q;
#X obj 141 143 pack f f f;
#X msg 215 90 247;
#X obj 115 73 t a a a;
#X obj 125 19 inlet Button number 11-99;
#X obj 122 270 midiout;
#X obj 13 267 print To MIDI;
#X msg 179 105 72;
#X connect 0 0 1 0;
#X connect 0 1 2 0;
#X connect 1 0 7 0;
#X connect 1 0 8 0;
#X connect 3 0 0 0;
#X connect 4 0 3 2;
#X connect 5 0 3 0;
#X connect 5 1 9 0;
#X connect 5 2 4 0;
#X connect 6 0 5 0;
#X connect 9 0 3 1;
#X restore 570 556 pd paint_it_red;
#X obj 140 293 s \$0-paint_it_red;
#X obj 10 619 polysynth cello;
#X obj 11 652 throw~ \$0-DAC;
#X obj 11 678 catch~ \$0-DAC;
#X obj 3 707 dac~;
#X obj 120 569 r \$0-velocity;
#X obj 670 28 s \$0-velocity;
#X obj 10 565 r \$0-polysynth;
#X obj 15 191 s \$0-init;
#X obj 365 529 s \$0-paint_it_blue;
#X obj 193 395 r \$0-init;
#X obj 262 201 s \$0-paint_it_blue;
#X obj 90 67 r \$0-init;
#X obj 67 237 i 27;
#X obj 67 263 i 32;
#X obj 68 290 i 54;
#X obj 67 316 i 76;
#X obj 68 361 i 13;
#X obj 68 388 i 15;
#X obj 67 413 i 17;
#X obj 66 435 i 22;
#X obj 120 446 i 25;
#X obj 64 481 i 35;
#X obj 64 504 i 37;
#X obj 280 412 i 42;
#X obj 280 443 i 44;
#X obj 280 467 i 47;
#X obj 279 493 i 52;
#X obj 279 523 i 57;
#X obj 280 550 i 62;
#X obj 281 575 i 64;
#X obj 280 600 i 66;
#X obj 176 113 i 71;
#X obj 176 138 i 74;
#X obj 176 165 i 78;
#X obj 179 192 i 83;
#X obj 178 218 i 85;
#X obj 180 243 i 87;
#X obj 617 52 s \$0-note;
#X obj 588 158 s \$0-polysynth;
#X obj 588 105 r \$0-note;
#X obj 588 130 playnote 20 29 18;
#X obj 725 158 s \$0-polysynth;
#X obj 725 105 r \$0-note;
#X obj 725 130 playnote 30 39 13;
#X obj 452 157 s \$0-polysynth;
#X obj 452 104 r \$0-note;
#X obj 452 129 playnote 10 19 23;
#X obj 867 160 s \$0-polysynth;
#X obj 867 107 r \$0-note;
#X obj 867 133 playnote 40 49 8;
#X obj 454 266 s \$0-polysynth;
#X obj 454 213 r \$0-note;
#X obj 454 240 playnote 50 59 3;
#X obj 594 268 s \$0-polysynth;
#X obj 594 215 r \$0-note;
#X obj 594 242 playnote 60 69 -2;
#X obj 731 267 s \$0-polysynth;
#X obj 731 214 r \$0-note;
#X obj 731 241 playnote 70 79 -7;
#X obj 877 269 s \$0-polysynth;
#X obj 877 216 r \$0-note;
#X obj 10 590 outlet;
#X obj 120 594 outlet;
#X obj 877 243 playnote 80 89 -12;
#X connect 0 0 7 0;
#X connect 6 0 51 0;
#X connect 6 1 19 0;
#X connect 7 0 21 0;
#X connect 7 0 26 0;
#X connect 7 0 27 0;
#X connect 7 0 28 0;
#X connect 7 0 29 0;
#X connect 7 0 30 0;
#X connect 7 0 31 0;
#X connect 7 0 32 0;
#X connect 7 0 33 0;
#X connect 7 0 34 0;
#X connect 7 0 35 0;
#X connect 7 0 36 0;
#X connect 9 0 8 0;
#X connect 11 0 12 0;
#X connect 14 0 15 0;
#X connect 16 0 17 0;
#X connect 16 0 17 1;
#X connect 18 0 76 0;
#X connect 20 0 75 0;
#X connect 23 0 37 0;
#X connect 23 0 38 0;
#X connect 23 0 39 0;
#X connect 23 0 40 0;
#X connect 23 0 41 0;
#X connect 23 0 42 0;
#X connect 23 0 43 0;
#X connect 23 0 44 1;
#X connect 23 0 44 0;
#X connect 25 0 45 0;
#X connect 25 0 46 0;
#X connect 25 0 47 0;
#X connect 25 0 48 0;
#X connect 25 0 49 0;
#X connect 25 0 50 1;
#X connect 25 0 50 0;
#X connect 26 0 13 0;
#X connect 27 0 13 0;
#X connect 28 0 13 0;
#X connect 29 0 13 0;
#X connect 30 0 10 0;
#X connect 31 0 10 0;
#X connect 32 0 10 0;
#X connect 33 0 10 0;
#X connect 34 0 10 0;
#X connect 35 0 10 0;
#X connect 36 0 10 0;
#X connect 37 0 22 0;
#X connect 38 0 22 0;
#X connect 39 0 22 0;
#X connect 40 0 22 0;
#X connect 41 0 22 0;
#X connect 42 0 22 0;
#X connect 43 0 22 0;
#X connect 44 0 22 0;
#X connect 45 0 24 0;
#X connect 46 0 24 0;
#X connect 47 0 24 0;
#X connect 48 0 24 0;
#X connect 49 0 24 0;
#X connect 50 0 24 0;
#X connect 53 0 54 0;
#X connect 54 0 52 0;
#X connect 56 0 57 0;
#X connect 57 0 55 0;
#X connect 59 0 60 0;
#X connect 60 0 58 0;
#X connect 62 0 63 0;
#X connect 63 0 61 0;
#X connect 65 0 66 0;
#X connect 66 0 64 0;
#X connect 68 0 69 0;
#X connect 69 0 67 0;
#X connect 71 0 72 0;
#X connect 72 0 70 0;
#X connect 74 0 77 0;
#X connect 77 0 73 0;
#X restore 24 38 pd setup;
#X obj 24 118 outlet;
#X obj 77 119 outlet;
#X floatatom 33 72 5 0 0 0 - - - 0;
#X floatatom 75 71 5 0 0 0 - - - 0;
#X connect 0 0 1 0;
#X connect 1 0 2 0;
#X connect 1 0 4 0;
#X connect 1 1 3 0;
#X connect 1 1 5 0;
#X coords 0 -1 1 1 85 45 1 30 50;
